<?xml version="1.0" encoding="UTF-8" standalone="no"?>
<svg
   role="img"
   viewBox="0 0 24 24"
   version="1.1"
   id="svg6"
   sodipodi:docname="github-gray.svg"
   inkscape:version="1.2.1 (9c6d41e410, 2022-07-14, custom)"
   xmlns:inkscape="http://www.inkscape.org/namespaces/inkscape"
   xmlns:sodipodi="http://sodipodi.sourceforge.net/DTD/sodipodi-0.dtd"
   xmlns="http://www.w3.org/2000/svg"
   xmlns:svg="http://www.w3.org/2000/svg">
  <defs
     id="defs10" />
  <sodipodi:namedview
     id="namedview8"
     pagecolor="#ffffff"
     bordercolor="#666666"
     borderopacity="1.0"
     inkscape:showpageshadow="2"
     inkscape:pageopacity="0.0"
     inkscape:pagecheckerboard="0"
     inkscape:deskcolor="#d1d1d1"
     showgrid="false"
     inkscape:zoom="36.333333"
     inkscape:cx="12.027523"
     inkscape:cy="12.013762"
     inkscape:window-width="1920"
     inkscape:window-height="1021"
     inkscape:window-x="0"
     inkscape:window-y="30"
     inkscape:window-maximized="1"
     inkscape:current-layer="svg6" />
  <title
     id="title2">GitHub</title>
  <path
     d="M12 .297c-6.63 0-12 5.373-12 12 0 5.303 3.438 9.8 8.205 11.385.6.113.82-.258.82-.577 0-.285-.01-1.04-.015-2.04-3.338.724-4.042-1.61-4.042-1.61C4.422 18.07 3.633 17.7 3.633 17.7c-1.087-.744.084-.729.084-.729 1.205.084 1.838 1.236 1.838 1.236 1.07 1.835 2.809 1.305 3.495.998.108-.776.417-1.305.76-1.605-2.665-.3-5.466-1.332-5.466-5.93 0-1.31.465-2.38 1.235-3.22-.135-.303-.54-1.523.105-3.176 0 0 1.005-.322 3.3 1.23.96-.267 1.98-.399 3-.405 1.02.006 2.04.138 3 .405 2.28-1.552 3.285-1.23 3.285-1.23.645 1.653.24 2.873.12 3.176.765.84 1.23 1.91 1.23 3.22 0 4.61-2.805 5.625-5.475 5.92.42.36.81 1.096.81 2.22 0 1.606-.015 2.896-.015 3.286 0 .315.21.69.825.57C20.565 22.092 24 17.592 24 12.297c0-6.627-5.373-12-12-12"
     id="path4" />
  <path
     style="fill:#4d4d4d;stroke-width:0.0275229"
     d="M 8.2018349,23.660833 C 7.8491579,23.558992 7.1576312,23.271558 6.6307508,23.00781 5.2226766,22.30295 3.9270487,21.289493 2.9009857,20.090338 0.50143902,17.286001 -0.46584809,13.589754 0.24798283,9.9525476 0.64826851,7.9129591 1.6009837,5.9833296 2.9876284,4.4036697 3.3023469,4.0451436 3.9733178,3.388126 4.3211009,3.0979272 5.9013928,1.7792931 7.8141129,0.88133791 9.8323038,0.51060994 12.862463,-0.04600987 15.998286,0.58650143 18.56422,2.2718821 c 1.131631,0.7432883 2.202414,1.748774 3.017641,2.8336225 1.360816,1.8108823 2.169958,3.9363113 2.362624,6.2060664 0.0424,0.49956 0.03565,1.592086 -0.01302,2.10586 -0.222457,2.348391 -1.111882,4.525721 -2.613984,6.399083 -0.329987,0.411546 -1.040314,1.145013 -1.459685,1.507234 -1.022094,0.882811 -2.197924,1.596091 -3.426605,2.078645 -0.647132,0.254154 -0.720637,0.275176 -0.91821,0.262596 -0.228749,-0.01457 -0.368426,-0.09073 -0.471699,-0.257202 l -0.08257,-0.133101 0.0095,-1.791013 c 0.0064,-1.205931 -7.4e-4,-1.889914 -0.02177,-2.093765 -0.07435,-0.720596 -0.294032,-1.286143 -0.644132,-1.658257 -0.134949,-0.143433 -0.135388,-0.144495 -0.0598,-0.144495 0.119701,0 0.628169,-0.07866 1.005114,-0.15548 1.891145,-0.385438 3.125711,-1.260584 3.799211,-2.693144 0.408828,-0.869593 0.60123,-1.944537 0.569945,-3.184274 -0.01471,-0.582842 -0.04742,-0.81879 -0.175788,-1.267882 C 19.27047,9.6899213 18.932507,9.0564121 18.545331,8.6075304 L 18.408598,8.4490057 18.451813,8.3185395 C 18.620734,7.8085654 18.67736,7.0623239 18.592474,6.4648404 18.544967,6.1304615 18.404203,5.5629735 18.31876,5.3613699 18.265655,5.2360687 18.178485,5.2134944 17.852205,5.2405461 17.151137,5.298671 16.244132,5.6689775 15.288991,6.2870389 L 14.986239,6.4829466 14.600917,6.3933151 C 12.816904,5.9783268 10.906371,5.9931977 9.1800528,6.4355092 L 8.9885461,6.4845765 8.6448234,6.2648868 C 7.9598081,5.827061 7.2282228,5.4881505 6.6330275,5.3329123 6.3801396,5.2669544 6.2540862,5.2496317 6.0059617,5.2467394 5.7572615,5.2438404 5.6900986,5.2513417 5.6687441,5.2844037 5.622925,5.3553418 5.4849264,5.8092776 5.4260981,6.0825688 5.2625948,6.8421336 5.2913832,7.6784769 5.5021153,8.2909806 L 5.5564404,8.4488788 5.4097335,8.6212285 C 4.9428328,9.1697389 4.5790172,9.9248411 4.4315887,10.651376 c -0.1593726,0.785396 -0.1202152,1.964862 0.097452,2.935371 0.5160143,2.300742 2.1016596,3.594021 4.8700415,3.97209 0.3843858,0.05249 0.3659727,0.03203 0.2056392,0.228557 -0.253713,0.310988 -0.4473137,0.774164 -0.5620335,1.344625 -0.012147,0.06041 -0.046491,0.08422 -0.2075014,0.143905 -0.4966486,0.18409 -1.0094882,0.261261 -1.4168992,0.213213 C 6.660244,19.399737 6.1145834,19.028467 5.6082643,18.257594 5.2249814,17.674043 4.9159737,17.382076 4.4449541,17.158434 4.2020986,17.043126 3.8674954,16.954128 3.676827,16.954128 c -0.1544728,0 -0.3662172,0.0547 -0.4417652,0.114131 -0.1845732,0.145185 -0.01996,0.373002 0.5411464,0.74892 0.2118313,0.141918 0.5260734,0.476132 0.7153384,0.760803 0.143493,0.215825 0.2318174,0.387804 0.5431907,1.057661 0.1514128,0.325735 0.3064696,0.537507 0.5870978,0.801842 0.4663195,0.439245 1.0189759,0.675289 1.7731355,0.75732 0.4206327,0.04575 1.1432598,-0.0024 1.5439962,-0.102899 l 0.06282,-0.01575 -0.00777,1.126818 -0.00777,1.126817 -0.073872,0.111588 c -0.1312758,0.1983 -0.4465654,0.295682 -0.7105315,0.219457 z"
     id="path256" />
  <path
     style="fill:#808080;stroke-width:0.0275229"
     d="M 7.9816514,23.571845 C 7.6162088,23.444511 6.8447453,23.105405 6.46789,22.906453 3.4182468,21.296464 1.2100985,18.493533 0.38877683,15.189882 0.13887665,14.184693 0.04504641,13.396576 0.04504641,12.302752 c 0,-1.596023 0.25444467,-2.9501746 0.82744819,-4.4036694 C 1.7388605,5.7014376 3.3112024,3.7379268 5.2706423,2.4067587 7.7002589,0.7561707 10.67227,0.04516866 13.538219,0.42888438 c 0.172396,0.0230818 0.330309,0.0354966 0.350917,0.0275885 0.02061,-0.007908 0.03747,-0.00525 0.03747,0.005907 0,0.0111568 0.126949,0.0431833 0.28211,0.0711699 0.433004,0.0781018 1.173155,0.27318448 1.628927,0.42933866 1.730879,0.59302446 3.175297,1.47939336 4.485357,2.75244416 1.000528,0.9722626 1.734125,1.9698977 2.357991,3.206686 0.671352,1.3309264 1.056387,2.6316154 1.222116,4.1284404 0.04424,0.399603 0.07381,2.181591 0.03641,2.194968 -0.01056,0.0038 -0.02294,0.127509 -0.02752,0.274962 -0.0046,0.147452 -0.01762,0.268209 -0.02897,0.268348 -0.01135,1.38e-4 -0.02064,0.03046 -0.02064,0.06737 0,0.279945 -0.266867,1.471269 -0.469814,2.097303 -0.807791,2.49181 -2.471121,4.719055 -4.612038,6.175648 -0.757912,0.515653 -1.560132,0.943566 -2.363103,1.260505 -0.617522,0.243741 -0.676764,0.259918 -0.908941,0.248193 -0.229355,-0.01158 -0.299496,-0.04945 -0.446563,-0.24108 l -0.08945,-0.116555 -0.0053,-1.532264 c -0.0029,-0.842746 -0.0025,-1.705659 8.59e-4,-1.917586 0.0034,-0.211926 -0.0065,-0.45344 -0.022,-0.536697 -0.0155,-0.08326 -0.03446,-0.202585 -0.04212,-0.265173 -0.04759,-0.38879 -0.280715,-0.934812 -0.526182,-1.232402 -0.08424,-0.102129 -0.145944,-0.192908 -0.13712,-0.201732 0.0088,-0.0088 0.06062,-0.01437 0.115109,-0.01232 0.243501,0.0092 1.662886,-0.288979 1.685642,-0.354059 0.0051,-0.01452 0.02003,-0.01973 0.03322,-0.01158 0.01319,0.0082 0.145279,-0.03018 0.293521,-0.0852 1.616452,-0.599853 2.61584,-1.710387 3.038384,-3.376294 0.149044,-0.587615 0.194893,-0.978823 0.208178,-1.776287 0.01334,-0.800439 -0.01025,-1.108012 -0.117399,-1.530693 C 19.334473,9.8056045 19.04266,9.2152086 18.626604,8.6863006 l -0.192628,-0.2448773 0.05943,-0.216856 c 0.03269,-0.1192706 0.05251,-0.2280597 0.04404,-0.2417529 -0.0085,-0.013694 -0.003,-0.032559 0.01216,-0.041924 0.01515,-0.00936 0.02732,-0.044281 0.02704,-0.07759 -2.84e-4,-0.033309 0.01176,-0.135369 0.02677,-0.2267989 0.0293,-0.1784958 0.0254,-0.9759652 -0.006,-1.2216715 -0.04983,-0.3903212 -0.24424,-1.064481 -0.327977,-1.1373215 -0.07134,-0.062057 -0.42086,-0.065524 -0.728043,-0.00722 -0.272187,0.05166 -0.752421,0.2040826 -0.752421,0.2388116 0,0.014435 -0.01177,0.018971 -0.02615,0.010081 -0.06723,-0.04155 -0.958673,0.4165492 -1.53192,0.7872298 L 14.980171,6.4685441 14.68366,6.3984831 c -0.163081,-0.038533 -0.30301,-0.063562 -0.310954,-0.055618 -0.0079,0.00794 -0.02797,0.00357 -0.0445,-0.00971 -0.01653,-0.013284 -0.18487,-0.050249 -0.37409,-0.082145 -1.143641,-0.1927762 -2.377214,-0.2178388 -3.509175,-0.071297 -0.411978,0.053334 -1.0596328,0.1793191 -1.0596328,0.2061245 0,0.012012 -0.024771,0.015363 -0.055046,0.00745 -0.031994,-0.00837 -0.055046,-8.449e-4 -0.055046,0.017963 0,0.017796 -0.0121,0.024879 -0.026888,0.01574 -0.014788,-0.00914 -0.076973,-0.00313 -0.1381877,0.013352 C 9.0010374,6.4697324 8.9933313,6.4668719 8.717317,6.2945324 7.9109376,5.7910404 7.2572417,5.4850261 6.6467891,5.3252571 6.3272186,5.2416185 5.800527,5.2016073 5.7033958,5.2535904 5.6596509,5.277002 5.6180767,5.3667603 5.5469756,5.5912993 5.3996392,6.0565911 5.3370669,6.422615 5.3211554,6.9122618 c -0.013728,0.4224485 0.023555,0.9204754 0.072581,0.9695326 0.01319,0.013198 0.018415,0.038501 0.011611,0.05623 -0.0068,0.017729 0.019012,0.1405236 0.057367,0.2728773 l 0.069736,0.2406435 -0.1425862,0.1710165 c -0.485575,0.5823955 -0.8526853,1.3731085 -0.9915693,2.1357243 -0.04807,0.263952 -0.058676,0.434872 -0.060827,0.980246 -0.00252,0.639546 0.043705,1.284254 0.096881,1.351156 0.013139,0.01653 0.01681,0.03713 0.00816,0.04579 -0.022554,0.02255 0.091152,0.565604 0.1835705,0.876719 0.1025496,0.345222 0.3484021,0.925711 0.4064034,0.959571 0.025025,0.01461 0.035893,0.02694 0.024151,0.0274 -0.028198,0.0011 0.057503,0.165975 0.086276,0.165975 0.012226,0 0.022229,0.01686 0.022229,0.03746 0,0.08208 0.3390974,0.515914 0.6268563,0.801984 0.1674969,0.166514 0.4221545,0.386556 0.565906,0.488983 0.2816479,0.200682 1.0789593,0.61493 1.1267361,0.585402 0.016019,-0.0099 0.029125,-0.0064 0.029125,0.0078 0,0.05192 1.0179367,0.355756 1.0745835,0.320746 0.014484,-0.009 0.026334,-0.0053 0.026334,0.0081 0,0.0224 0.3267096,0.09606 0.3771206,0.08502 0.012079,-0.0026 0.04054,0.0028 0.063246,0.01199 0.022706,0.0092 0.1695013,0.03518 0.3262112,0.05765 0.1567095,0.02246 0.2903741,0.04629 0.2970324,0.05295 0.00666,0.0067 -0.067107,0.12894 -0.1639244,0.271737 -0.1535009,0.226403 -0.3338028,0.609245 -0.3569661,0.757961 -0.00419,0.02689 -0.014848,0.06128 -0.023688,0.07642 -0.00884,0.01514 -0.037752,0.117597 -0.064248,0.227687 -0.032709,0.135905 -0.067054,0.21347 -0.1069841,0.241613 -0.071941,0.0507 -0.4310474,0.166306 -0.6918366,0.222715 -0.1916579,0.04145 -0.8607449,0.09112 -0.8738598,0.06487 -0.00378,-0.0076 -0.1110435,-0.03493 -0.2383616,-0.06081 C 6.866828,19.36616 6.4856288,19.179205 6.2583188,18.983981 6.0301814,18.788048 5.84746,18.573139 5.5684927,18.172641 5.4393223,17.987199 5.2492234,17.749025 5.14605,17.643366 4.9553428,17.448065 4.5551431,17.162498 4.5106693,17.189984 c -0.013437,0.0083 -0.024431,0.0013 -0.024431,-0.01567 0,-0.01692 -0.012385,-0.02312 -0.027523,-0.01376 -0.015138,0.0094 -0.027523,0.0044 -0.027523,-0.01094 0,-0.01537 -0.1021789,-0.06115 -0.2270642,-0.101732 -0.2455137,-0.07978 -0.6859024,-0.119424 -0.7485958,-0.06739 -0.018696,0.01552 -0.041136,0.02107 -0.049867,0.01234 -0.030851,-0.03085 -0.2179156,0.08073 -0.2421333,0.144426 -0.056119,0.147606 0.061865,0.292506 0.5107792,0.627304 0.5437442,0.405522 0.7771866,0.708738 1.1771799,1.529026 0.3752441,0.769535 0.5126653,0.962663 0.9127706,1.282787 0.5786045,0.462941 1.241601,0.657563 2.1623431,0.634755 0.4342092,-0.01076 0.9357798,-0.06345 0.9357798,-0.09832 0,-0.0091 0.028074,-0.01647 0.062386,-0.01647 h 0.062386 l -0.010069,1.114679 c -0.011429,1.265259 -0.0046,1.226734 -0.2420474,1.365887 -0.2023839,0.118604 -0.4023518,0.117264 -0.7533901,-0.0051 z"
     id="path449" />
</svg>
