<?xml version="1.0" encoding="UTF-8" standalone="no"?>
<svg
   role="img"
   viewBox="0 0 24 24"
   version="1.1"
   id="svg339"
   sodipodi:docname="googlescholar-gray.svg"
   inkscape:version="1.2.1 (9c6d41e410, 2022-07-14, custom)"
   xmlns:inkscape="http://www.inkscape.org/namespaces/inkscape"
   xmlns:sodipodi="http://sodipodi.sourceforge.net/DTD/sodipodi-0.dtd"
   xmlns="http://www.w3.org/2000/svg"
   xmlns:svg="http://www.w3.org/2000/svg">
  <defs
     id="defs343" />
  <sodipodi:namedview
     id="namedview341"
     pagecolor="#ffffff"
     bordercolor="#666666"
     borderopacity="1.0"
     inkscape:showpageshadow="2"
     inkscape:pageopacity="0.0"
     inkscape:pagecheckerboard="0"
     inkscape:deskcolor="#d1d1d1"
     showgrid="false"
     inkscape:zoom="36.333333"
     inkscape:cx="12.027523"
     inkscape:cy="12.013762"
     inkscape:window-width="1920"
     inkscape:window-height="1021"
     inkscape:window-x="0"
     inkscape:window-y="30"
     inkscape:window-maximized="1"
     inkscape:current-layer="svg339" />
  <title
     id="title335">Google Scholar</title>
  <path
     d="M5.242 13.769L0 9.5 12 0l12 9.5-5.242 4.269C17.548 11.249 14.978 9.5 12 9.5c-2.977 0-5.548 1.748-6.758 4.269zM12 10a7 7 0 1 0 0 14 7 7 0 0 0 0-14z"
     id="path337" />
  <path
     style="fill:#4d4d4d;stroke-width:0.0275229"
     d="M 3.286323,12.156617 C 2.2252225,11.29089 1.0579927,10.33915 0.69247896,10.041637 L 0.02790842,9.5007055 6.0024666,4.770995 C 9.2884737,2.1696541 11.98804,0.0412844 12.001502,0.0412844 c 0.01346,0 2.712764,2.1282037 5.998448,4.7293415 l 5.97397,4.7293417 -0.17422,0.1422179 c -1.781042,1.4538905 -5.011037,4.0796665 -5.024685,4.0847435 -0.01,0.0037 -0.0711,-0.09696 -0.135842,-0.223716 -0.462547,-0.905628 -1.261511,-1.847502 -2.11755,-2.496312 C 15.766534,10.434602 14.841425,9.9807052 13.95138,9.7458325 12.899717,9.4683105 11.798795,9.416547 10.733945,9.5945546 8.9415878,9.8941772 7.2802192,10.882645 6.1127491,12.344037 5.8834434,12.631073 5.5365239,13.162617 5.3807339,13.465618 5.3050459,13.612827 5.2369266,13.732684 5.2293578,13.731967 5.221789,13.731252 4.3474233,13.022343 3.286323,12.156617 Z"
     id="path486" />
  <path
     style="fill:#4d4d4d;stroke-width:0.0275229"
     d="M 11.582239,23.969945 C 9.0937739,23.829321 6.842021,22.329678 5.7383532,20.077982 5.4190511,19.426543 5.2227359,18.821952 5.1083027,18.137615 4.8249092,16.442856 5.1977714,14.649777 6.1296779,13.225862 8.5911129,9.4648915 13.788772,8.9121013 16.941798,12.075954 c 1.000756,1.004192 1.670232,2.275724 1.925286,3.656686 0.272642,1.476182 0.06918,2.961348 -0.591527,4.317819 -0.990515,2.033592 -2.88993,3.458538 -5.113558,3.836204 -0.182014,0.03091 -0.465287,0.06322 -0.629494,0.07179 -0.164208,0.0086 -0.360487,0.01945 -0.436175,0.02417 -0.07569,0.0047 -0.307029,-9.79e-4 -0.514091,-0.01268 z"
     id="path488" />
  <path
     style="fill:#808080;stroke-width:0.0275229"
     d="M 5.1046908,13.613151 C 5.0445878,13.564189 3.9240826,12.652711 2.6146789,11.587644 1.3052752,10.522577 0.19406949,9.6168254 0.14533281,9.574862 L 0.05672067,9.4985651 2.0994613,7.8812302 C 10.067354,1.5726699 11.959375,0.08256881 12.00163,0.08256881 c 0.01693,0 0.255709,0.17609541 0.530628,0.39132314 1.53447,1.20130255 11.275723,8.90670715 11.349193,8.97729765 l 0.06035,0.057985 -0.638331,0.5189574 c -3.691724,3.001335 -4.511072,3.664004 -4.526326,3.660783 -0.0098,-0.0021 -0.09439,-0.141122 -0.188077,-0.309026 -0.364723,-0.653653 -0.741402,-1.148217 -1.303801,-1.711833 -0.406123,-0.407004 -0.694491,-0.646764 -1.109853,-0.922777 -1.412888,-0.9388801 -2.985971,-1.3520646 -4.739633,-1.2449076 -0.341727,0.020881 -0.868443,0.098283 -0.90473,0.132952 -0.0132,0.012609 -0.03991,0.016817 -0.05937,0.00935 -0.04636,-0.017788 -0.7010377,0.1556158 -0.7010377,0.1856824 0,0.012719 -0.018578,0.015997 -0.041284,0.00728 -0.022706,-0.00871 -0.041293,-0.00523 -0.041304,0.00774 -1.04e-5,0.012973 -0.028098,0.025194 -0.062417,0.027158 -0.092007,0.00527 -0.6531598,0.2300232 -0.6531598,0.2616082 0,0.01488 -0.01065,0.02048 -0.023667,0.01243 -0.032796,-0.02027 -0.3988627,0.160643 -0.7607367,0.375959 -0.7708385,0.458651 -1.4990458,1.087573 -2.0484598,1.76917 -0.2222837,0.275763 -0.6193825,0.877636 -0.769825,1.166805 -0.062988,0.121072 -0.1238158,0.225873 -0.135172,0.232891 -0.011357,0.007 -0.069823,-0.0273 -0.1299259,-0.07626 z"
     id="path430" />
  <path
     style="fill:#808080;stroke-width:0.0275229"
     d="m 11.394496,23.942104 c -0.143808,-0.01254 -0.344576,-0.03665 -0.446152,-0.05356 -0.101576,-0.01692 -0.197562,-0.0228 -0.213303,-0.01307 -0.01574,0.0097 -0.02862,0.0068 -0.02862,-0.0066 0,-0.02836 -0.327272,-0.09416 -0.361896,-0.07276 -0.01288,0.008 -0.02342,-8.4e-5 -0.02342,-0.01788 0,-0.01854 -0.02294,-0.02636 -0.05373,-0.01831 -0.02955,0.0077 -0.05742,0.0052 -0.06193,-0.0057 -0.0045,-0.01086 -0.119668,-0.05424 -0.2559066,-0.09641 C 8.4098203,23.181293 7.0499227,22.151534 6.1670258,20.793578 5.6573172,20.009611 5.2964499,19.104499 5.1465027,18.233945 c -0.033896,-0.196789 -0.067876,-0.376376 -0.075512,-0.399082 -0.00764,-0.02271 -0.011366,-0.09362 -0.00829,-0.157589 0.00308,-0.06397 -0.00208,-0.128725 -0.011466,-0.143907 -0.02479,-0.04011 -0.032154,-1.047132 -0.00766,-1.04713 0.011353,1e-6 0.020645,-0.05264 0.020648,-0.116971 1.51e-5,-0.327215 0.1775822,-1.137399 0.3724884,-1.699548 0.4685448,-1.351379 1.4801577,-2.642356 2.7179084,-3.468478 1.7473233,-1.166229 3.9559815,-1.4819579 5.9371205,-0.848715 1.120019,0.357998 2.053767,0.942074 2.90367,1.816296 0.562846,0.578952 0.910261,1.072328 1.26683,1.799069 0.453518,0.92434 0.664384,1.791645 0.692578,2.848624 0.02368,0.887655 -0.07169,1.532756 -0.351947,2.380734 -0.161995,0.490151 -0.48822,1.167629 -0.768678,1.59633 -1.413849,2.161181 -3.888371,3.371035 -6.4397,3.148526 z"
     id="path432" />
</svg>
