<?xml version="1.0" encoding="UTF-8" standalone="no"?>
<svg
   role="img"
   viewBox="0 0 24 24"
   version="1.1"
   id="svg6"
   sodipodi:docname="kaggle-gray.svg"
   inkscape:version="1.2.1 (9c6d41e410, 2022-07-14, custom)"
   xmlns:inkscape="http://www.inkscape.org/namespaces/inkscape"
   xmlns:sodipodi="http://sodipodi.sourceforge.net/DTD/sodipodi-0.dtd"
   xmlns="http://www.w3.org/2000/svg"
   xmlns:svg="http://www.w3.org/2000/svg"
   xmlns:rdf="http://www.w3.org/1999/02/22-rdf-syntax-ns#"
   xmlns:cc="http://creativecommons.org/ns#"
   xmlns:dc="http://purl.org/dc/elements/1.1/">
  <defs
     id="defs10" />
  <sodipodi:namedview
     id="namedview8"
     pagecolor="#ffffff"
     bordercolor="#666666"
     borderopacity="1.0"
     inkscape:showpageshadow="2"
     inkscape:pageopacity="0.0"
     inkscape:pagecheckerboard="0"
     inkscape:deskcolor="#d1d1d1"
     showgrid="false"
     inkscape:zoom="36.333333"
     inkscape:cx="12.027523"
     inkscape:cy="12.013762"
     inkscape:window-width="1920"
     inkscape:window-height="1021"
     inkscape:window-x="0"
     inkscape:window-y="30"
     inkscape:window-maximized="1"
     inkscape:current-layer="svg6" />
  <title
     id="title2">Kaggle</title>
  <path
     d="M.1025 7.3475c-.0681 0-.1022.0341-.1022.102v6.752c0 .0681.034.1022.1022.1022h.7049c.068 0 .1022-.034.1022-.1023v-1.481l.4187-.3985 1.5016 1.91c.041.0477.0884.0716.143.0716h.9091c.0476 0 .0748-.0135.0817-.0407.0135-.041.0066-.075-.0206-.1023l-1.9816-2.4618 1.9002-1.8384c.0204-.0205.0237-.051.01-.092-.0137-.0339-.0408-.051-.0816-.051h-.9398c-.0477 0-.0953.024-.143.0716L.9096 11.607V7.4496c0-.0679-.0342-.102-.1022-.102zm18.0417 0c-.068 0-.102.0341-.102.102v6.752c0 .0681.034.102.102.102h.705c.068 0 .102-.034.102-.102v-6.752c0-.068-.034-.102-.102-.102zM5.961 9.6254c-.5653 0-1.11.1806-1.6343.5415-.0545.0545-.0648.102-.0307.143l.3676.5208c.0272.0477.0717.0545.133.0204.3948-.2722.783-.4086 1.1644-.4086.2927 0 .5158.0886.669.2656.1532.1771.2197.3917.1992.6436-.6606.0681-1.1545.1495-1.4813.245-.8308.2383-1.2461.6913-1.2461 1.3586 0 .4222.1533.7695.4598 1.0419.3132.2654.6845.3982 1.1134.3982.4698 0 .8545-.1125 1.1542-.3372v.1432c0 .0682.0374.102.1123.102h.7048c.068 0 .102-.0338.102-.102V11.372c0-.6604-.2245-1.1406-.6739-1.4403-.3065-.2043-.6776-.3063-1.1134-.3063zm4.3225 0c-.6742 0-1.195.2622-1.5627.7865-.3133.4359-.4699.9671-.4699 1.5936 0 .6604.1634 1.2087.4903 1.6444.3744.4972.892.7455 1.5526.7455.5313 0 .9567-.1327 1.2768-.3982v.531c0 .858-.4122 1.287-1.236 1.287-.361 0-.732-.1907-1.1132-.572a.098.098 0 00-.0716-.0306c-.034 0-.0613.0102-.0817.0307l-.4802.48c-.0408.0613-.0375.1124.0103.1532.1361.1157.2554.2129.3576.2911.102.0783.1905.1413.2656.189.354.1975.7284.2961 1.1235.2961.6808 0 1.207-.1925 1.5781-.577.3711-.3848.5567-.9484.5567-1.6903V9.8196c0-.068-.034-.102-.102-.102h-.705c-.0682 0-.1021.034-.1021.102v.2043c-.3471-.2657-.7763-.3985-1.287-.3985zm4.8021 0c-.6742 0-1.195.2622-1.5627.7865-.3132.4359-.4699.9671-.4699 1.5936 0 .6604.1633 1.2087.4903 1.6444.3744.4972.892.7455 1.5526.7455.5311 0 .9566-.1327 1.2768-.3982v.531c0 .858-.4122 1.287-1.236 1.287-.361 0-.732-.1907-1.1133-.572a.098.098 0 00-.0716-.0306c-.034 0-.0612.0102-.0816.0307l-.48.48c-.0409.0613-.0376.1124.01.1532.1363.1157.2555.2129.3576.2911.1021.0783.1906.1413.2657.189.354.1975.7285.2961 1.1237.2961.6808 0 1.2068-.1925 1.5781-.577.371-.3848.5565-.9484.5565-1.6903V9.8196c0-.068-.034-.102-.102-.102h-.7049c-.0682 0-.1022.034-.1022.102v.2043c-.3474-.2657-.7763-.3985-1.287-.3985zm6.7457 0c-.6537 0-1.185.211-1.5936.6332-.4427.4632-.664 1.0283-.664 1.6956 0 .7083.225 1.2905.6743 1.7467.463.463 1.042.6945 1.7366.6945.6467 0 1.2154-.1838 1.7057-.5515.0545-.041.0545-.0884 0-.143l-.4802-.4903c-.041-.0409-.0919-.0409-.1533 0-.2998.2112-.6368.3167-1.0112.3167-.4222 0-.7729-.119-1.052-.3576-.2452-.2248-.3882-.5038-.429-.8375h3.3197c.0679 0 .1022-.0341.1022-.1023l.01-.2244c.0341-.6878-.1668-1.26-.6025-1.7162-.4224-.4426-.9432-.664-1.5627-.664zm-.0206.7865c.3268 0 .6062.1056.8377.3166.2452.211.371.4734.378.7865h-2.4618c.0613-.3269.2077-.5925.4392-.7968.2313-.2042.5004-.3063.8069-.3063zm-11.4249.102c.6196 0 1.0146.2181 1.1848.6538v1.6854c-.1702.4358-.5755.6538-1.2155.6538-.3133 0-.5687-.0986-.7661-.2963-.2656-.2518-.3983-.6538-.3983-1.2053 0-.9941.3984-1.4914 1.1951-1.4914zm4.802 0c.6196 0 1.0148.2181 1.1851.6538h-.0002v1.6854c-.1703.4358-.5755.6538-1.2155.6538-.3132 0-.5686-.0986-.7661-.2963-.2655-.2518-.3983-.6538-.3983-1.2053 0-.9941.3983-1.4914 1.195-1.4914zm-8.3586 1.6547v1.0215c-.286.286-.6675.412-1.1441.3779-.1703-.0135-.32-.0663-.4493-.1582-.1294-.0919-.2045-.2129-.2249-.3627-.0341-.2657.1158-.47.4495-.6129.2452-.1088.7013-.1974 1.3688-.2656z"
     id="path4" />
  <path
     style="fill:#4d4d4d;stroke-width:0.0275229"
     d="M 0.04587156,14.266055 C 0.03577982,14.255963 0.02752294,12.702167 0.02752294,10.813174 V 7.3786411 l 0.09305667,-0.017458 c 0.12609014,-0.023655 0.72251248,-0.0045 0.75105478,0.024127 0.0125736,0.012609 0.0290537,0.9705738 0.0366225,2.1288115 L 0.92201835,11.620008 1.8519459,10.681564 2.7818736,9.7431193 h 0.5356687 c 0.5058578,0 0.5356687,0.00288 0.5356687,0.051725 0,0.031909 -0.3637748,0.4028377 -0.9495413,0.9682147 -0.5222477,0.504069 -0.9495413,0.924921 -0.9495413,0.935228 0,0.01031 0.4521838,0.580559 1.0048528,1.267227 0.5526691,0.686669 1.000615,1.261233 0.9954358,1.276808 -0.00588,0.01769 -0.2009062,0.03113 -0.5194195,0.03579 -0.4552676,0.0067 -0.516008,0.0022 -0.5659591,-0.04128 -0.030776,-0.02682 -0.3808344,-0.463667 -0.7779071,-0.970777 -0.3970728,-0.50711 -0.7314799,-0.932496 -0.743127,-0.945302 -0.011647,-0.01281 -0.115355,0.06618 -0.230462,0.175518 l -0.20928542,0.1988 v 0.74143 c 0,0.458453 -0.0108741,0.761748 -0.0284913,0.794666 -0.0261291,0.04882 -0.0611182,0.05324 -0.42201834,0.05324 -0.21643988,0 -0.40178394,-0.0083 -0.41187568,-0.01835 z"
     id="path185" />
  <path
     style="fill:#4d4d4d;stroke-width:0.0275229"
     d="M 5.4703118,14.365212 C 5.218067,14.336422 4.9619381,14.247039 4.7699878,14.120815 4.3053833,13.815296 4.1122443,13.445178 4.1329703,12.900082 c 0.0093,-0.244589 0.02182,-0.304533 0.097051,-0.464658 0.2796746,-0.595273 0.889348,-0.864945 2.35836,-1.043153 l 0.271868,-0.03298 -0.016969,-0.16235 C 6.8046063,10.82693 6.5915269,10.560792 6.262689,10.47178 c -0.3635369,-0.0984 -0.846608,-0.0043 -1.2900525,0.251295 -0.11849,0.0683 -0.232236,0.120357 -0.2527687,0.115689 -0.042739,-0.0097 -0.4257039,-0.541866 -0.4260572,-0.592028 -5.718e-4,-0.08118 0.5355019,-0.3707961 0.8979915,-0.485141 0.9947931,-0.3138009 1.9859543,-0.00383 2.3505242,0.735083 0.1874796,0.379987 0.1933013,0.449779 0.1850816,2.218919 l -0.00722,1.555046 H 7.293578 6.8669725 l -0.00846,-0.116972 c -0.00465,-0.06433 -0.012443,-0.116973 -0.017308,-0.116973 -0.00486,0 -0.081561,0.0438 -0.170436,0.09733 -0.088875,0.05353 -0.2405402,0.121724 -0.3370331,0.151538 -0.1573376,0.04861 -0.2401532,0.06175 -0.581439,0.09223 -0.052982,0.0047 -0.1798735,-9.33e-4 -0.2819818,-0.01258 z M 6.233945,13.536587 c 0.1658836,-0.03652 0.3134178,-0.107506 0.4885321,-0.235048 l 0.1307339,-0.09522 v -0.520592 -0.520591 l -0.089449,1.26e-4 c -0.1546137,2.2e-4 -0.8161387,0.105894 -1.0297443,0.164496 -0.5545549,0.15214 -0.8021024,0.412648 -0.7238642,0.761763 0.038535,0.171951 0.1253844,0.282294 0.2947389,0.374469 0.2317948,0.126158 0.5625342,0.15129 0.9290531,0.07059 z"
     id="path187" />
  <path
     style="fill:#4d4d4d;stroke-width:0.0275229"
     d="M 10.108435,16.623466 C 9.876209,16.598496 9.5683012,16.509853 9.3722538,16.41153 9.1030689,16.276525 8.587156,15.875593 8.587156,15.801407 c 0,-0.02506 0.1229815,-0.168079 0.2732923,-0.317826 0.3131826,-0.312007 0.2473949,-0.308629 0.5799187,-0.02978 0.3398291,0.284976 0.643697,0.390569 1.045413,0.363277 0.625568,-0.0425 0.974612,-0.355004 1.072882,-0.960567 0.0295,-0.181784 0.03972,-0.874861 0.0129,-0.874861 -0.0086,0 -0.05534,0.03031 -0.103915,0.06736 -0.273914,0.208924 -0.688787,0.322623 -1.174065,0.321762 C 9.4843664,14.369341 8.9025431,14.006421 8.5356063,13.274218 8.2568904,12.718056 8.1878087,11.858889 8.3688329,11.200065 8.5271188,10.623994 8.8988254,10.114636 9.3410674,9.8677895 9.6260193,9.7087375 9.8928596,9.6489848 10.307339,9.6514153 c 0.49162,0.00288 0.836513,0.1013152 1.183487,0.3377661 l 0.08257,0.056268 0.01376,-0.1442836 0.01376,-0.1442843 h 0.426606 0.426605 l 0.0082,2.3944949 c 0.0057,1.655943 -0.0014,2.473502 -0.02283,2.650646 -0.102246,0.84368 -0.483801,1.399828 -1.144586,1.668329 -0.314442,0.127769 -0.817934,0.192744 -1.186493,0.153115 z m 0.845693,-3.18817 c 0.230363,-0.07499 0.430883,-0.228705 0.543578,-0.416684 l 0.08945,-0.149205 v -0.848431 c 0,-0.671702 -0.0082,-0.867968 -0.03919,-0.942216 -0.06331,-0.151514 -0.262312,-0.345986 -0.440677,-0.430639 -0.233434,-0.110788 -0.418856,-0.141411 -0.783308,-0.129364 -0.279475,0.0092 -0.3408452,0.02035 -0.4909844,0.08892 -0.3120296,0.142492 -0.5139548,0.426375 -0.6021806,0.846596 -0.054961,0.261781 -0.055471,0.827264 -9.807e-4,1.086761 0.099872,0.475612 0.3703601,0.804343 0.7688589,0.934413 0.1761688,0.0575 0.7265168,0.03438 0.9554298,-0.04015 z"
     id="path189" />
  <path
     style="fill:#4d4d4d;stroke-width:0.0275229"
     d="m 14.896637,16.621007 c -0.429542,-0.04996 -0.783672,-0.199521 -1.148931,-0.485224 -0.292406,-0.228718 -0.371559,-0.301624 -0.371559,-0.342234 0,-0.0355 0.45937,-0.511093 0.531205,-0.54997 0.04018,-0.02175 0.08703,0.0052 0.247706,0.142452 0.464605,0.396886 0.852595,0.51 1.371841,0.399943 0.347254,-0.0736 0.57804,-0.24321 0.708956,-0.521023 0.113713,-0.241304 0.140292,-0.40636 0.140292,-0.87121 v -0.410889 l -0.16986,0.109786 c -0.437712,0.282907 -1.212855,0.367037 -1.756746,0.190668 -0.60408,-0.195887 -1.092465,-0.757439 -1.286608,-1.479362 -0.06486,-0.24117 -0.07202,-0.31693 -0.0734,-0.776421 -0.0017,-0.577459 0.04229,-0.823045 0.214201,-1.195135 0.337203,-0.729832 0.870115,-1.1196193 1.624146,-1.1879478 0.407952,-0.036968 0.946564,0.086294 1.276243,0.2920696 l 0.172019,0.1073682 V 9.9370342 c 0,-0.199796 -0.01389,-0.1939149 0.457875,-0.1939149 h 0.424463 l -0.008,2.6077977 c -0.008,2.602178 -0.0081,2.608273 -0.06945,2.827982 -0.197303,0.70705 -0.619218,1.154508 -1.281233,1.358799 -0.148384,0.04579 -0.7265,0.126379 -0.789705,0.110084 -0.0076,-0.002 -0.103624,-0.014 -0.213455,-0.02678 z m 0.71283,-3.14696 c 0.233332,-0.04946 0.391888,-0.129276 0.541887,-0.272797 0.227899,-0.218058 0.224793,-0.20141 0.224793,-1.204625 v -0.886301 l -0.08661,-0.134967 c -0.105161,-0.16388 -0.278904,-0.300938 -0.487176,-0.384312 -0.138025,-0.05525 -0.203697,-0.06231 -0.58218,-0.0626 -0.404648,-3.05e-4 -0.434677,0.0034 -0.583445,0.07292 -0.289254,0.135086 -0.48495,0.389586 -0.590215,0.767568 -0.0698,0.250614 -0.07061,0.982173 -0.0014,1.236567 0.123759,0.454745 0.382713,0.744973 0.775953,0.869665 0.148456,0.04707 0.563766,0.04648 0.788366,-0.0011 z"
     id="path191" />
  <path
     style="fill:#4d4d4d;stroke-width:0.0275229"
     d="m 18.074083,14.266744 c -0.01047,-0.01047 -0.01904,-1.55851 -0.01904,-3.440087 0,-3.3541239 10e-4,-3.4216079 0.05324,-3.4495418 0.07805,-0.041771 0.722994,-0.03689 0.781164,0.00591 0.04362,0.032099 0.04628,0.2639086 0.03966,3.4610098 l -0.0071,3.426605 -0.414449,0.0076 c -0.227947,0.0042 -0.423016,-9.96e-4 -0.433486,-0.01147 z"
     id="path193" />
  <path
     style="fill:#4d4d4d;stroke-width:0.0275229"
     d="m 21.715596,14.366372 c -1.012584,-0.104843 -1.797036,-0.772135 -2.053854,-1.747106 -0.0729,-0.276754 -0.07304,-1.020747 -2.45e-4,-1.293578 0.213482,-0.800113 0.809514,-1.4220052 1.542559,-1.6094866 0.897889,-0.2296412 1.797548,0.064511 2.324479,0.7600106 0.320337,0.422814 0.443441,0.816641 0.443749,1.419609 1.65e-4,0.345136 -0.0044,0.379912 -0.05304,0.405963 -0.035,0.01873 -0.619473,0.02849 -1.706422,0.02849 -1.878086,0 -1.690879,-0.02903 -1.609549,0.249592 0.121565,0.416459 0.458897,0.746905 0.904761,0.886291 0.157232,0.04915 0.258725,0.06043 0.537841,0.05976 0.303826,-7.32e-4 0.369771,-0.0098 0.56422,-0.07736 0.121101,-0.04209 0.287924,-0.117936 0.370718,-0.168538 0.101933,-0.0623 0.164136,-0.08462 0.192661,-0.06912 0.02317,0.01258 0.159747,0.143061 0.303507,0.289948 l 0.261383,0.267068 -0.09989,0.08623 c -0.138519,0.119573 -0.492845,0.303397 -0.739387,0.383593 -0.356116,0.115838 -0.820075,0.166268 -1.183487,0.12864 z m 1.321101,-2.911835 c 0,-0.131224 -0.08406,-0.369456 -0.182934,-0.518423 -0.111298,-0.167691 -0.320587,-0.336263 -0.54509,-0.439044 -0.231792,-0.106118 -0.593221,-0.123797 -0.86198,-0.04216 -0.216956,0.0659 -0.468835,0.236107 -0.60637,0.409759 -0.107677,0.135954 -0.249898,0.433311 -0.271801,0.568289 l -0.01609,0.09916 h 1.242133 1.242133 z"
     id="path195" />
  <metadata
     id="metadata213">
    <rdf:RDF>
      <cc:Work
         rdf:about="">
        <dc:title>Kaggle</dc:title>
      </cc:Work>
    </rdf:RDF>
  </metadata>
  <path
     style="fill:#666666;stroke-width:0.0275229"
     d="M 0.24418487,14.26431 0.06176423,14.25451 0.04234054,11.05615 C 0.03165751,9.2970604 0.02704956,7.752523 0.03210063,7.6238533 l 0.0091838,-0.233945 H 0.4392387 0.83719295 l 0.0189405,0.092609 c 0.0104173,0.050935 0.0281412,1.0106707 0.0393864,2.1327465 L 0.91596575,11.655401 1.8597431,10.69926 2.8035204,9.7431196 3.1288244,9.743315 c 0.4000016,2.408e-4 0.6968637,0.026528 0.6968637,0.061708 0,0.014531 -0.4211009,0.441996 -0.9357798,0.949921 -0.5146789,0.507926 -0.9357798,0.93514 -0.9357798,0.949365 0,0.01422 0.3814741,0.50458 0.8477201,1.089677 0.9862762,1.237687 1.1064083,1.393311 1.1064083,1.433281 0,0.04487 -0.9670467,0.04034 -1.022815,-0.0048 -0.047443,-0.0384 -0.3636005,-0.432509 -1.0542668,-1.31422 -0.2549399,-0.325459 -0.467421,-0.596517 -0.4721802,-0.602352 -0.014594,-0.01789 -0.1297103,0.06677 -0.2900803,0.213337 l -0.1528602,0.139706 -0.0198496,0.778324 c -0.0109173,0.428079 -0.0281534,0.786083 -0.0383024,0.795567 -0.0259021,0.0242 -0.39575805,0.04317 -0.61371749,0.03147 z"
     id="path256" />
  <path
     style="fill:#666666;stroke-width:0.0275229"
     d="M 5.3119267,14.325925 C 5.047233,14.266074 4.7570459,14.111469 4.5554687,13.922904 4.2370149,13.625005 4.1457417,13.388462 4.1607922,12.900059 c 0.00851,-0.276153 0.018044,-0.325542 0.0914,-0.473453 0.045897,-0.09254 0.1546614,-0.238129 0.2474222,-0.33118 0.3418713,-0.342943 0.8803943,-0.528009 1.9502571,-0.670216 0.2247227,-0.02987 0.4132923,-0.05902 0.4190437,-0.06477 0.026993,-0.02699 -0.052757,-0.380624 -0.1147804,-0.508964 -0.1407352,-0.29121 -0.4011582,-0.422389 -0.8135706,-0.409807 -0.4091835,0.01248 -0.6027578,0.06581 -0.9750218,0.268608 -0.1072547,0.05843 -0.2094851,0.106234 -0.2271786,0.106234 -0.034177,0 -0.3487827,-0.409301 -0.3992397,-0.519409 -0.02615,-0.05706 -0.019642,-0.07347 0.051706,-0.130363 0.1355609,-0.108093 0.6196643,-0.3336318 0.8814388,-0.4106538 0.336557,-0.099025 0.8200995,-0.1229093 1.1290218,-0.055767 0.3322116,0.072204 0.6514763,0.2372564 0.8575543,0.4433348 0.2058198,0.20582 0.3753847,0.53383 0.4189736,0.810473 0.016783,0.106513 0.028272,0.810881 0.028396,1.740825 l 2.078e-4,1.561927 H 7.293578 6.880734 l -4.211e-4,-0.07569 c -8.56e-4,-0.153738 -0.02786,-0.155692 -0.3027383,-0.02191 -0.1413862,0.06881 -0.2734461,0.125116 -0.2934668,0.125116 -0.020021,0 -0.036401,0.0093 -0.036401,0.02064 0,0.01135 -0.03406,0.02181 -0.075688,0.02324 -0.041628,0.0014 -0.2119266,0.01058 -0.3784404,0.02034 -0.2219935,0.01301 -0.3504733,0.007 -0.4816513,-0.02271 z m 1.0054886,-0.796607 c 0.076184,-0.02291 0.2279041,-0.09885 0.337156,-0.168749 l 0.1986398,-0.127088 v -0.538323 -0.538322 l -0.2649127,0.0174 c -0.145702,0.0096 -0.2799838,0.02991 -0.298404,0.0452 -0.01842,0.01529 -0.0401,0.02119 -0.048177,0.01311 -0.023571,-0.02357 -0.5169463,0.07459 -0.5169463,0.102854 0,0.01411 -0.010839,0.01895 -0.024086,0.01076 -0.033517,-0.02072 -0.278666,0.06587 -0.278666,0.09842 0,0.01461 -0.011113,0.01969 -0.024696,0.0113 -0.013583,-0.0084 -0.084244,0.02577 -0.1570241,0.07593 -0.2897449,0.199673 -0.3399096,0.549565 -0.1154453,0.805216 0.1673081,0.190553 0.404888,0.264353 0.7925781,0.246201 0.1438074,-0.0067 0.3238002,-0.03099 0.3999841,-0.0539 z"
     id="path258" />
  <path
     style="fill:#666666;stroke-width:0.0275229"
     d="m 10.113033,16.62119 c -0.006,-0.0097 -0.06999,-0.0256 -0.1422317,-0.03538 C 9.7512973,16.556095 9.3909564,16.415433 9.1830345,16.278295 8.901593,16.092666 8.614679,15.853962 8.614679,15.805441 c 0,-0.04299 0.4184691,-0.488321 0.5005902,-0.532725 0.035868,-0.0194 0.092348,0.01162 0.2477064,0.13602 0.2317669,0.185582 0.4339112,0.317313 0.454828,0.296397 0.00794,-0.0079 0.03155,0.0027 0.052464,0.02359 0.06468,0.06468 0.3375374,0.104551 0.6158484,0.08999 0.537798,-0.02814 0.85916,-0.248499 1.02406,-0.702203 0.04745,-0.130547 0.05958,-0.242142 0.07023,-0.646323 0.0096,-0.363897 0.0046,-0.488532 -0.01954,-0.488532 -0.01784,0 -0.07249,0.03056 -0.121456,0.0679 -0.250167,0.190812 -0.651869,0.296528 -1.13207,0.297927 C 9.4959982,14.349848 8.9207798,13.99786 8.5602003,13.278373 8.4462224,13.050946 8.3119267,12.5883 8.3119267,12.423077 c 0,-0.05104 -0.00929,-0.09279 -0.020642,-0.09278 -0.041848,3.4e-5 0.01623,-0.83471 0.073727,-1.05965 0.1197485,-0.468484 0.4554891,-1.006309 0.7791394,-1.248108 0.3077951,-0.2299534 0.5894554,-0.3294582 0.9980519,-0.3525909 0.476184,-0.026959 0.918203,0.07116 1.253844,0.2783295 0.08697,0.053679 0.164383,0.097599 0.172034,0.097599 0.0077,0 0.02243,-0.061927 0.03284,-0.1376154 l 0.01893,-0.1376147 h 0.410261 0.410261 v 2.4877861 c 0,2.725722 0.0012,2.70317 -0.165343,3.159454 -0.273618,0.749732 -0.866787,1.138609 -1.831017,1.2004 -0.176052,0.01128 -0.32499,0.01259 -0.330974,0.0029 z m 0.672157,-3.136256 c 0.297414,-0.04826 0.551713,-0.209104 0.722069,-0.456706 l 0.08201,-0.119198 -0.0079,-0.919744 -0.0079,-0.919745 -0.08617,-0.118904 c -0.04739,-0.0654 -0.107933,-0.131617 -0.134536,-0.147155 -0.0266,-0.01554 -0.07918,-0.05589 -0.116835,-0.08966 -0.03766,-0.03378 -0.0793,-0.05472 -0.09253,-0.04654 -0.01323,0.0082 -0.02406,10e-4 -0.02406,-0.0159 0,-0.01692 -0.01239,-0.02312 -0.02752,-0.01376 -0.01514,0.0094 -0.02752,0.0055 -0.02752,-0.0085 0,-0.01404 -0.07203,-0.04573 -0.160062,-0.07043 -0.180463,-0.05063 -0.885809,-0.06517 -0.885809,-0.01825 0,0.01466 -0.01732,0.02001 -0.038499,0.01189 -0.061536,-0.02361 -0.3131825,0.119026 -0.4482172,0.254061 -0.068255,0.06825 -0.117745,0.130456 -0.109977,0.138224 0.00777,0.0078 -0.00889,0.03714 -0.037029,0.06528 -0.1864171,0.186417 -0.2714961,1.099557 -0.1492446,1.60182 0.1029068,0.422788 0.400467,0.767966 0.7554427,0.876336 0.1025201,0.0313 0.5942211,0.02939 0.7943641,-0.0031 z"
     id="path260" />
  <path
     style="fill:#666666;stroke-width:0.0275229"
     d="m 15.09633,16.619773 c -0.362921,-0.02139 -0.586161,-0.07558 -0.880734,-0.213815 -0.220019,-0.103247 -0.591186,-0.364454 -0.738705,-0.519859 -0.09828,-0.103533 -0.09287,-0.114109 0.213253,-0.416981 l 0.235214,-0.232717 0.117596,0.08749 c 0.600315,0.446649 0.675193,0.480061 1.105273,0.493192 0.173918,0.0053 0.313532,-0.0024 0.332807,-0.01841 0.01826,-0.01516 0.04053,-0.02023 0.04948,-0.01128 0.009,0.009 0.03206,0.0065 0.05135,-0.0054 0.01929,-0.01192 0.06199,-0.02454 0.09489,-0.02805 0.102371,-0.01091 0.284061,-0.118303 0.396932,-0.234609 0.119791,-0.123437 0.231468,-0.337937 0.272038,-0.522514 0.02944,-0.133938 0.04246,-1.015174 0.015,-1.015174 -0.0096,0 -0.05024,0.02318 -0.09042,0.05152 -0.296406,0.209013 -0.688394,0.316448 -1.160212,0.317989 -0.400494,0.0013 -0.561121,-0.03155 -0.866973,-0.177344 -0.478399,-0.228047 -0.887029,-0.748855 -1.061435,-1.352823 -0.115066,-0.398472 -0.101018,-1.336635 0.02552,-1.704426 0.142535,-0.414285 0.415833,-0.830491 0.696526,-1.060743 0.58717,-0.4816538 1.580202,-0.5273852 2.28861,-0.105396 0.08813,0.052496 0.163903,0.095447 0.168394,0.095447 0.0045,0 0.01501,-0.051041 0.02338,-0.1134247 0.0084,-0.062383 0.02593,-0.124146 0.03904,-0.1372503 0.0131,-0.013104 0.203641,-0.031996 0.423414,-0.041983 l 0.399588,-0.018157 -0.0085,1.992563 c -0.01343,3.129017 -0.01725,3.278247 -0.08995,3.506324 -0.08829,0.277022 -0.255886,0.585604 -0.414991,0.764115 -0.261069,0.292914 -0.678532,0.5134 -1.090675,0.576049 -0.118461,0.01801 -0.221576,0.03966 -0.229145,0.04812 -0.0076,0.0085 -0.15,0.0074 -0.316514,-0.0025 z m 0.713875,-3.187907 c 0.08988,-0.03494 0.191306,-0.09142 0.225396,-0.125515 0.03409,-0.03409 0.06719,-0.05677 0.07355,-0.05041 0.02665,0.02664 0.210602,-0.21451 0.237488,-0.311331 0.01778,-0.06403 0.02926,-0.45073 0.02935,-0.988645 l 1.54e-4,-0.883485 -0.07785,-0.10734 c -0.112254,-0.154786 -0.268913,-0.283981 -0.443834,-0.366026 -0.146178,-0.06856 -0.172997,-0.07159 -0.634283,-0.07159 -0.480846,0 -0.481895,1.35e-4 -0.62681,0.08042 -0.07984,0.04423 -0.199444,0.13846 -0.265795,0.209393 -0.13117,0.140232 -0.247704,0.343026 -0.221491,0.38544 0.009,0.01462 0.0045,0.02658 -0.01,0.02658 -0.06253,0 -0.100693,0.29838 -0.100331,0.784404 3.3e-4,0.442481 0.007,0.514802 0.06274,0.676886 0.131065,0.381362 0.342106,0.624835 0.656124,0.756957 0.150904,0.06349 0.18679,0.06729 0.546824,0.05787 0.321064,-0.0084 0.412573,-0.02067 0.548737,-0.07361 z"
     id="path262" />
  <path
     style="fill:#666666;stroke-width:0.0275229"
     d="m 18.076664,12.227064 c -0.01546,-2.2600634 0.0025,-4.7734154 0.03456,-4.8252305 0.03103,-0.050212 0.740596,-0.044593 0.772736,0.00612 0.0129,0.020351 0.02364,1.5696852 0.02387,3.4429655 l 4.21e-4,3.405963 h -0.408852 -0.408853 z"
     id="path264" />
  <path
     style="fill:#808080;stroke-width:0.0275229"
     d="m 21.710966,14.363113 c -0.02016,-0.0098 -0.117158,-0.03238 -0.215553,-0.05023 -0.946919,-0.17179 -1.700316,-0.93759 -1.846776,-1.877179 -0.0407,-0.261087 -0.01625,-0.98258 0.03901,-1.151297 0.137343,-0.419315 0.289739,-0.681644 0.56083,-0.965393 0.294348,-0.308089 0.664392,-0.5312351 0.978749,-0.5902088 0.05668,-0.010632 0.103047,-0.028194 0.103047,-0.039025 0,-0.010831 0.03569,-0.014455 0.07931,-0.00805 0.04362,0.0064 0.08578,0.00116 0.09368,-0.011648 0.02274,-0.036859 0.675397,0.00597 0.872883,0.057285 0.243744,0.063331 0.589432,0.2372298 0.785372,0.3950828 0.354401,0.285512 0.658371,0.776676 0.742226,1.199312 0.04498,0.226677 0.06061,0.91811 0.02162,0.955852 -0.01193,0.01155 -0.768374,0.03122 -1.680982,0.04371 -1.377988,0.01886 -1.663336,0.02928 -1.683173,0.06141 -0.0277,0.04486 0.03687,0.286052 0.08047,0.300585 0.01561,0.0052 0.02149,0.02062 0.01307,0.03425 -0.0262,0.04239 0.128778,0.275754 0.285686,0.430174 0.166041,0.163409 0.452177,0.314733 0.687067,0.363357 0.209829,0.04344 0.65416,0.0373 0.846073,-0.01167 0.09022,-0.02303 0.281,-0.09796 0.423952,-0.166526 l 0.259911,-0.124661 0.27563,0.27563 0.275631,0.27563 -0.06187,0.06586 c -0.08009,0.08525 -0.546753,0.328034 -0.7703,0.400747 -0.09566,0.03112 -0.250478,0.07049 -0.344036,0.08749 -0.216511,0.03935 -0.773306,0.07291 -0.821525,0.04952 z m 1.320164,-2.980332 c -0.01607,-0.193755 -0.149294,-0.463543 -0.302589,-0.612753 -0.138465,-0.134775 -0.432562,-0.318123 -0.480669,-0.299662 -0.01832,0.007 -0.03823,-0.002 -0.04425,-0.02008 -0.0077,-0.0232 -0.11543,-0.03286 -0.366457,-0.03286 -0.315205,0 -0.371895,0.0074 -0.500008,0.06532 -0.07947,0.03592 -0.144495,0.07824 -0.144495,0.09404 0,0.0158 -0.0078,0.02088 -0.01743,0.01129 -0.05569,-0.05569 -0.504717,0.410625 -0.461986,0.479765 0.0081,0.01314 0.0025,0.0239 -0.0124,0.0239 -0.02654,0 -0.115462,0.213844 -0.151636,0.364679 l -0.01815,0.07569 h 1.256226 1.256226 z"
     id="path266" />
  <path
     style="fill:#808080;stroke-width:0.0275229"
     d="M 0.0758159,13.840303 C 0.07054826,13.607724 0.06361358,12.064335 0.0604055,10.410551 L 0.05457262,7.4036698 h 0.38261309 c 0.31750104,0 0.38535405,0.00714 0.39871966,0.041973 0.008859,0.023085 0.0290686,0.979126 0.044911,2.1245352 0.0158424,1.145409 0.032866,2.086624 0.0378301,2.091588 0.004964,0.005 0.43420653,-0.425562 0.95387193,-0.956724 l 0.9448463,-0.9657503 0.442235,0.019483 c 0.2432295,0.010715 0.4670058,0.028678 0.4972811,0.039917 0.047159,0.017506 -0.07805,0.1541787 -0.8738533,0.9538623 -0.5108945,0.513385 -0.928899,0.943096 -0.928899,0.954913 0,0.02837 0.1253249,0.1911 0.9777743,1.269597 0.7548718,0.955045 0.9488312,1.206603 0.9488312,1.230596 0,0.03194 -0.4001081,0.05124 -0.6865555,0.03312 L 2.89062,14.221568 2.4830555,13.709408 C 2.2588951,13.42772 1.917019,12.995986 1.7233308,12.75 1.5296426,12.504014 1.3561778,12.302752 1.3378534,12.302752 c -0.018324,0 -0.12248,0.07561 -0.2314568,0.168027 -0.15255975,0.129374 -0.19828611,0.184773 -0.1987761,0.240826 -0.002894,0.331068 -0.0561173,1.501112 -0.0688627,1.513858 -0.008893,0.0089 -0.18203816,0.02102 -0.38476682,0.02694 l -0.36859754,0.01077 z"
     id="path337" />
  <path
     style="fill:#808080;stroke-width:0.0275229"
     d="M 5.2285796,14.289824 C 4.9539725,14.198261 4.727123,14.059046 4.5259629,13.858635 4.2430339,13.57676 4.203569,13.477646 4.1890657,13.012536 c -0.011623,-0.372747 -0.010759,-0.379527 0.070495,-0.553163 0.098809,-0.211149 0.3415774,-0.46795 0.5569531,-0.589145 0.3272902,-0.184171 0.876861,-0.328755 1.6560741,-0.435689 0.1918041,-0.02632 0.3644575,-0.05758 0.3836743,-0.06945 0.027778,-0.01717 0.028386,-0.05683 0.00297,-0.193526 -0.017586,-0.09456 -0.041615,-0.179073 -0.053399,-0.187801 -0.011784,-0.0087 -0.022664,-0.03135 -0.024177,-0.05027 -0.00151,-0.01892 -0.00461,-0.05164 -0.00688,-0.07271 -0.00808,-0.07501 -0.2519394,-0.313557 -0.3685944,-0.360568 -0.066291,-0.02671 -0.2267602,-0.05324 -0.3694832,-0.06108 -0.3566115,-0.01958 -0.6394744,0.04218 -0.9803324,0.214056 -0.1481301,0.07469 -0.2875789,0.135804 -0.3098862,0.135804 -0.049002,0 -0.3973098,-0.46246 -0.3976266,-0.527942 C 4.3485452,10.197362 4.4651658,10.119961 4.7960466,9.9642576 5.255233,9.7481774 5.4050707,9.7104254 5.8623909,9.6955895 6.34245,9.6800165 6.5330737,9.7163955 6.8635558,9.8866569 c 0.3872915,0.1995291 0.6970784,0.5882051 0.7850511,0.9849701 0.015204,0.06857 0.0362,0.852209 0.04701,1.754587 l 0.019535,1.63067 H 7.2996017 6.8840569 l -0.00854,-0.103211 c -0.00738,-0.08915 -0.016951,-0.102043 -0.070261,-0.09464 -0.056997,0.0079 -0.4209004,0.162034 -0.5404834,0.228897 -0.028459,0.01591 -0.2390093,0.03426 -0.4678899,0.04078 -0.3525375,0.01004 -0.4394037,0.0041 -0.5683009,-0.03889 z m 1.1119469,-0.761512 c 0.073757,-0.0256 0.2192849,-0.09756 0.3233945,-0.159924 l 0.1892901,-0.113379 v -0.557662 -0.557661 l -0.1857798,0.01548 c -0.246749,0.02055 -0.7822166,0.112309 -0.966196,0.165563 -0.48828,0.141335 -0.7195839,0.352242 -0.7195839,0.656128 0,0.27873 0.2036972,0.512507 0.5151606,0.591235 0.1574363,0.03979 0.6862902,0.01486 0.8437145,-0.03978 z"
     id="path339" />
  <path
     style="fill:#808080;stroke-width:0.0275229"
     d="M 9.8944955,16.557325 C 9.6129609,16.484457 9.3398595,16.367429 9.1462171,16.236678 8.8986596,16.069522 8.6422019,15.85099 8.6422019,15.807196 c 0,-0.04256 0.4580683,-0.531967 0.4979061,-0.531967 0.01103,0 0.1295456,0.08203 0.2633679,0.182284 0.1338222,0.100255 0.3238178,0.221012 0.4222123,0.268348 0.1746248,0.08401 0.1881058,0.08604 0.5642198,0.08503 0.334372,-9e-4 0.406071,-0.0093 0.542247,-0.06341 0.312055,-0.124027 0.562485,-0.440072 0.62501,-0.788769 0.03972,-0.221533 0.03355,-0.977308 -0.008,-0.97636 -0.01696,3.88e-4 -0.09897,0.04415 -0.182222,0.09726 -0.377356,0.240685 -1.087088,0.32495 -1.6100922,0.191163 C 9.4500535,14.192286 9.1976708,14.046931 8.9724771,13.819012 8.6159596,13.45818 8.4413744,13.082568 8.3100697,12.393875 8.2719889,12.194141 8.315089,11.52711 8.3828969,11.266778 8.4895626,10.857261 8.7708391,10.378425 9.0566782,10.119756 9.3936746,9.8147914 9.7565669,9.6879432 10.2911,9.6882663 c 0.466306,2.819e-4 0.840219,0.1030698 1.205355,0.3313497 0.07643,0.04779 0.09702,0.02679 0.116442,-0.1187509 l 0.01554,-0.1164613 0.410422,-0.00764 0.410422,-0.00764 -0.0185,2.4847062 c -0.01018,1.366588 -0.03022,2.572882 -0.04454,2.680653 -0.05061,0.380828 -0.236389,0.801367 -0.469639,1.063067 -0.329535,0.369729 -0.825091,0.565828 -1.540462,0.609583 -0.188901,0.01155 -0.281639,0.002 -0.4816515,-0.0498 z m 0.9919235,-3.086279 c 0.257943,-0.06717 0.453994,-0.203527 0.636723,-0.442859 0.07119,-0.09325 0.110223,-0.217296 0.05827,-0.185184 -0.02208,0.01364 -0.02564,-0.230966 -0.01302,-0.893768 l 0.01738,-0.912553 -0.161771,-0.165325 c -0.237136,-0.242346 -0.435075,-0.327361 -0.83029,-0.356607 -0.383375,-0.02837 -0.6553666,0.005 -0.8196146,0.100479 -0.1449512,0.08429 -0.3210268,0.239673 -0.3681885,0.324929 -0.01889,0.03415 -0.05689,0.10187 -0.084444,0.150494 -0.077174,0.136184 -0.1278477,0.420032 -0.1451431,0.813018 -0.027418,0.622995 0.087499,1.01462 0.3880635,1.322476 0.08123,0.0832 0.2126232,0.18113 0.2936149,0.218834 0.1323168,0.0616 0.1815388,0.06827 0.5054878,0.06851 0.236363,1.65e-4 0.414902,-0.01431 0.522935,-0.04245 z"
     id="path341" />
  <path
     style="fill:#808080;stroke-width:0.0275229"
     d="m 15.055046,16.605113 c -0.426684,-0.03143 -0.754063,-0.142929 -1.119977,-0.381444 -0.242528,-0.158088 -0.503876,-0.384026 -0.503876,-0.435606 0,-0.03223 0.467862,-0.512834 0.499238,-0.512834 0.0103,0 0.152994,0.09436 0.317088,0.209695 0.417581,0.293493 0.481863,0.318327 0.856747,0.330986 0.643764,0.02174 0.955657,-0.136351 1.172726,-0.594423 0.0849,-0.17916 0.08545,-0.183267 0.09481,-0.710019 0.0059,-0.330729 -6.28e-4,-0.529816 -0.01731,-0.529816 -0.0147,0 -0.09944,0.0438 -0.188312,0.09733 -0.379623,0.228655 -1.041466,0.323853 -1.530716,0.220173 -0.633106,-0.134164 -1.195313,-0.703519 -1.428747,-1.446913 -0.05984,-0.190583 -0.06451,-0.251265 -0.06451,-0.838479 0,-0.699411 0.02392,-0.835467 0.212776,-1.21004 0.387045,-0.767673 0.934473,-1.1156485 1.755114,-1.1156485 0.398593,0 0.659811,0.061625 1.000751,0.2360901 0.134129,0.068636 0.248396,0.1202674 0.253927,0.1147364 0.0055,-0.0055 0.0201,-0.058404 0.03238,-0.117495 0.02666,-0.1283244 0.05069,-0.1356615 0.526822,-0.1608667 l 0.31388,-0.016616 -0.01718,2.5523507 c -0.0098,1.45512 -0.02895,2.62956 -0.04454,2.731952 -0.01505,0.09878 -0.0633,0.266748 -0.10722,0.373262 -0.215367,0.522271 -0.548436,0.860144 -1.037177,1.052139 -0.17208,0.0676 -0.65677,0.171858 -0.769014,0.165419 -0.0461,-0.0026 -0.139548,-0.0089 -0.207667,-0.01393 z m 0.770642,-3.170787 c 0.231544,-0.09399 0.388157,-0.221673 0.474412,-0.386784 l 0.07605,-0.145571 v -0.928763 -0.928764 l -0.09017,-0.113953 c -0.128399,-0.162257 -0.359672,-0.327378 -0.526441,-0.375859 -0.107463,-0.03124 -0.255676,-0.03978 -0.595786,-0.03435 -0.434467,0.0069 -0.457735,0.01019 -0.57659,0.08048 -0.17093,0.101082 -0.368415,0.30613 -0.44229,0.459227 -0.03399,0.07045 -0.07259,0.150156 -0.08577,0.177135 -0.06969,0.142609 -0.101544,1.035743 -0.04684,1.313332 0.0628,0.318701 0.286341,0.664511 0.528286,0.817244 0.209907,0.132509 0.279566,0.145707 0.720934,0.136593 0.350933,-0.0072 0.435545,-0.01774 0.56422,-0.06997 z"
     id="path343" />
  <path
     style="fill:#808080;stroke-width:0.0275229"
     d="m 18.095945,13.327982 c -0.02482,-1.123676 -0.0046,-5.8872817 0.02518,-5.9169609 0.023,-0.022959 0.718865,-0.029861 0.741172,-0.00735 0.0075,0.00757 0.02274,1.5526376 0.03388,3.4334859 l 0.02024,3.419725 H 18.516444 18.11647 Z"
     id="path345" />
</svg>
