<?xml version="1.0" encoding="UTF-8" standalone="no"?>
<svg
   role="img"
   viewBox="0 0 24 24"
   version="1.1"
   id="svg349"
   sodipodi:docname="linkedin-gray.svg"
   inkscape:version="1.2.1 (9c6d41e410, 2022-07-14, custom)"
   xmlns:inkscape="http://www.inkscape.org/namespaces/inkscape"
   xmlns:sodipodi="http://sodipodi.sourceforge.net/DTD/sodipodi-0.dtd"
   xmlns="http://www.w3.org/2000/svg"
   xmlns:svg="http://www.w3.org/2000/svg">
  <defs
     id="defs353" />
  <sodipodi:namedview
     id="namedview351"
     pagecolor="#ffffff"
     bordercolor="#666666"
     borderopacity="1.0"
     inkscape:showpageshadow="2"
     inkscape:pageopacity="0.0"
     inkscape:pagecheckerboard="0"
     inkscape:deskcolor="#d1d1d1"
     showgrid="false"
     inkscape:zoom="36.333333"
     inkscape:cx="12.027523"
     inkscape:cy="12.013762"
     inkscape:window-width="1920"
     inkscape:window-height="1021"
     inkscape:window-x="0"
     inkscape:window-y="30"
     inkscape:window-maximized="1"
     inkscape:current-layer="svg349" />
  <title
     id="title345">LinkedIn</title>
  <path
     d="M20.447 20.452h-3.554v-5.569c0-1.328-.027-3.037-1.852-3.037-1.853 0-2.136 1.445-2.136 2.939v5.667H9.351V9h3.414v1.561h.046c.477-.9 1.637-1.85 3.37-1.85 3.601 0 4.267 2.37 4.267 5.455v6.286zM5.337 7.433c-1.144 0-2.063-.926-2.063-2.065 0-1.138.92-2.063 2.063-2.063 1.14 0 2.064.925 2.064 2.063 0 1.139-.925 2.065-2.064 2.065zm1.782 13.019H3.555V9h3.564v11.452zM22.225 0H1.771C.792 0 0 .774 0 1.729v20.542C0 23.227.792 24 1.771 24h20.451C23.2 24 24 23.227 24 22.271V1.729C24 .774 23.2 0 22.222 0h.003z"
     id="path347" />
  <path
     style="fill:#4d4d4d;stroke-width:0.0275229"
     d="M 1.5621913,23.971355 C 0.86192659,23.889063 0.25193683,23.362063 0.06224306,22.675477 0.01634093,22.509336 0.01376147,21.941348 0.01376147,12 c 0,-9.9413483 0.0025795,-10.5093362 0.04848159,-10.6754765 C 0.22864101,0.72225495 0.73177291,0.22846633 1.3486239,0.06203103 1.5176762,0.01641826 2.103935,0.01376147 12,0.01376147 c 10.036105,0 10.479932,0.0020834 10.651376,0.04999888 0.628134,0.1755515 1.112918,0.65013952 1.284353,1.25734055 0.0486,0.1721236 0.05051,0.5765667 0.05051,10.6788991 0,10.102332 -0.0019,10.506776 -0.05051,10.678899 -0.17241,0.610654 -0.627682,1.057917 -1.281277,1.258736 -0.144955,0.04454 -0.792439,0.0477 -10.530599,0.05149 -5.7068805,0.0022 -10.4596284,-0.0058 -10.5616617,-0.01777 z M 7.1284404,14.738532 V 9 H 5.3394495 3.5504587 v 5.738532 5.738532 h 1.7889908 1.7889909 z m 5.7873026,2.566514 c 0.01179,-3.456509 0.01256,-3.474403 0.172846,-4.027511 0.208051,-0.717941 0.665547,-1.189468 1.306324,-1.34639 0.288252,-0.07059 0.798049,-0.0847 1.073709,-0.02972 0.756478,0.150882 1.157509,0.635536 1.339781,1.619151 0.04257,0.229744 0.04807,0.582456 0.05621,3.605573 l 0.009,3.350917 h 1.787957 1.787957 v -3.560223 c 0,-4.053915 -0.0091,-4.278835 -0.209946,-5.19207 C 19.965175,10.477032 19.367237,9.617534 18.454128,9.1582764 17.45273,8.6546125 15.894052,8.5534638 14.793913,8.9207507 14.483605,9.0243484 14.026897,9.2602673 13.775229,9.4469659 13.489172,9.6591762 13.13383,10.029178 12.948383,10.307925 l -0.163979,0.24648 -0.0073,-0.7772027 L 12.769785,9 H 11.05003 9.3302752 v 5.738532 5.738532 H 11.117598 12.90492 Z M 5.8348624,7.3851025 C 5.9332569,7.3625978 6.131422,7.2868982 6.2752294,7.2168809 6.4969329,7.1089373 6.5744439,7.0517213 6.7848991,6.84066 7.0629515,6.5618067 7.2035766,6.3420383 7.3140135,6.0137615 7.381535,5.8130521 7.3881669,5.7558471 7.3889972,5.3669725 7.3898725,4.9573786 7.3864679,4.9307513 7.303631,4.6992328 7.1811922,4.3570302 7.0656432,4.1764123 6.7978263,3.9085957 6.5285953,3.6393647 6.3468636,3.5235429 6.0071893,3.4047052 5.8004961,3.332392 5.7165853,3.3186418 5.4196984,3.3084352 4.9991917,3.2939785 4.735042,3.3496395 4.3761468,3.5283297 4.1870328,3.6224876 4.0914944,3.6951911 3.8775919,3.9077235 3.6474451,4.1363961 3.5966832,4.2046329 3.4878388,4.4316495 3.3231113,4.7752217 3.2696582,5.0044734 3.2699953,5.3659439 c 3.413e-4,0.3648284 0.054955,0.6042289 0.2105777,0.9230469 0.4273663,0.8755308 1.379842,1.318985 2.3542894,1.0961117 z"
     id="path409" />
  <path
     style="fill:#808080;stroke-width:0.0275229"
     d="M 1.4626128,23.942011 C 1.1448559,23.888177 0.7132352,23.647207 0.48799096,23.397889 0.33494948,23.22849 0.20316981,23.016505 0.11802631,22.802753 L 0.0412844,22.610092 V 12 1.3899083 L 0.11688788,1.2010764 C 0.32040003,0.69277181 0.70357187,0.31901323 1.2318839,0.11347206 L 1.4174312,0.0412844 11.994754,0.03519139 c 6.762521,-0.0038955 10.594105,0.0034933 10.623854,0.02048694 0.02559,0.01461898 0.11841,0.05255904 0.206264,0.08431125 0.212314,0.076735 0.536122,0.29631226 0.691,0.46857413 0.162433,0.18066399 0.298118,0.40649779 0.378497,0.62996839 l 0.06435,0.1788991 V 11.986239 22.555046 l -0.06649,0.203001 C 23.730574,23.251594 23.3359,23.655094 22.80584,23.86873 l -0.223267,0.08999 -10.486239,0.0041 C 5.9207892,23.96522 1.54947,23.95672 1.4626168,23.94198 Z M 7.1284404,14.738532 V 9.0000001 H 5.3394496 3.5504587 v 5.7385319 5.738532 h 1.7889909 1.7889908 z m 5.7891326,4.867071 c 0.01001,-0.479303 0.01832,-1.770473 0.01846,-2.869266 2.92e-4,-2.326426 0.02182,-2.896967 0.124181,-3.290934 0.126504,-0.486886 0.287038,-0.789175 0.565098,-1.064092 0.347966,-0.344032 0.767893,-0.491403 1.400234,-0.491403 0.976381,0 1.492153,0.440103 1.741773,1.486239 0.05387,0.225759 0.05657,0.35336 0.07718,3.646789 0.01175,1.877064 0.02264,3.422133 0.02421,3.433486 0.0016,0.01135 0.808076,0.02064 1.792237,0.02064 h 1.789382 l -0.0041,-3.584862 c -0.0022,-1.971674 -0.01424,-3.762084 -0.02666,-3.978688 -0.01242,-0.216604 -0.04903,-0.551008 -0.08136,-0.743119 -0.06863,-0.407869 -0.210343,-0.978497 -0.246107,-0.99098 -0.01364,-0.0048 -0.01799,-0.02644 -0.0096,-0.04817 0.0083,-0.02173 7.18e-4,-0.03951 -0.01693,-0.03951 -0.01765,0 -0.02502,-0.01143 -0.01639,-0.02541 0.0086,-0.01398 -0.03283,-0.137309 -0.09215,-0.274074 -0.493041,-1.136764 -1.343626,-1.7773895 -2.68223,-2.0201454 -0.286795,-0.05201 -0.430421,-0.060511 -1.008722,-0.059701 -0.594323,8.312e-4 -0.708592,0.00832 -0.963303,0.063148 -0.340451,0.073281 -0.495405,0.1168637 -0.495432,0.1393469 -10e-6,0.00896 -0.03012,0.018019 -0.06691,0.020137 -0.08226,0.00474 -0.648668,0.272267 -0.648668,0.3063858 0,0.013544 -0.01646,0.024626 -0.03659,0.024626 -0.0761,0 -0.372679,0.2242938 -0.643972,0.4870096 -0.154814,0.1499191 -0.275642,0.2820261 -0.268507,0.2935711 0.0071,0.01154 -0.004,0.0275 -0.02475,0.03547 -0.02075,0.008 -0.10118,0.104546 -0.178741,0.214634 l -0.14102,0.200159 -3.02e-4,-0.6452364 C 12.797697,9.4967783 12.789883,9.1599771 12.7805,9.1032111 L 12.76344,9.0000001 H 11.046858 9.3302753 v 5.7385319 5.738532 h 1.7845457 1.784546 z M 5.7039479,7.4201921 C 6.064221,7.3731336 6.4429916,7.1784314 6.7518705,6.8815212 7.0318432,6.6123967 7.1756602,6.4065386 7.3004208,6.0963303 7.3889348,5.8762473 7.3889753,5.8759148 7.3894418,5.3669725 L 7.3899097,4.8577982 7.2929255,4.6238533 C 7.1614297,4.3066605 7.0317702,4.1202878 6.7632507,3.8624984 6.5130672,3.6223123 6.3379099,3.5117676 6.0275244,3.3981691 5.8487012,3.3327215 5.7683698,3.3208663 5.4266973,3.3095007 4.9581416,3.2939142 4.7613515,3.3308111 4.4055155,3.5009665 4.2141377,3.5924802 4.1237144,3.6603083 3.8901468,3.887552 3.6421602,4.1288246 3.5916309,4.1944123 3.4844565,4.4141442 3.3641285,4.6608435 3.2888188,4.9015677 3.2724716,5.0917432 c -0.029722,0.3457695 0.026457,0.9082569 0.090713,0.9082569 0.013963,0 0.018249,0.011549 0.00953,0.025664 -0.023651,0.038268 0.1051068,0.3120231 0.2474937,0.5262036 0.3013084,0.4532323 0.8116759,0.7785157 1.3796073,0.8792942 0.1371685,0.024341 0.4739807,0.019093 0.7041382,-0.010969 z"
     id="path464" />
</svg>
